<?xml version="1.0" encoding="UTF-8" standalone="no"?>
<svg
   xmlns:dc="http://purl.org/dc/elements/1.1/"
   xmlns:cc="http://web.resource.org/cc/"
   xmlns:rdf="http://www.w3.org/1999/02/22-rdf-syntax-ns#"
   xmlns:svg="http://www.w3.org/2000/svg"
   xmlns="http://www.w3.org/2000/svg"
   xmlns:sodipodi="http://sodipodi.sourceforge.net/DTD/sodipodi-0.dtd"
   xmlns:inkscape="http://www.inkscape.org/namespaces/inkscape"
   width="139.575"
   height="91.8069"
   id="svg2"
   sodipodi:version="0.32"
   inkscape:version="0.45.1"
   sodipodi:docname="headissue-logo-curves.svg"
   inkscape:output_extension="org.inkscape.output.svg.inkscape"
   sodipodi:docbase="/home/jeans/tmp/logo">
  <metadata
     id="metadata43">
    <rdf:RDF>
      <cc:Work
         rdf:about="">
        <dc:format>image/svg+xml</dc:format>
        <dc:type
           rdf:resource="http://purl.org/dc/dcmitype/StillImage" />
      </cc:Work>
    </rdf:RDF>
  </metadata>
  <sodipodi:namedview
     inkscape:window-height="1146"
     inkscape:window-width="1596"
     inkscape:pageshadow="2"
     inkscape:pageopacity="0.0"
     guidetolerance="10.0"
     gridtolerance="10.0"
     objecttolerance="10.0"
     borderopacity="1.0"
     bordercolor="#666666"
     pagecolor="#ffffff"
     id="base"
     showguides="true"
     inkscape:guide-bbox="true"
     inkscape:zoom="4.9984294"
     inkscape:cx="48.982227"
     inkscape:cy="52.275177"
     inkscape:window-x="147"
     inkscape:window-y="869"
     inkscape:current-layer="svg2">
    <sodipodi:guide
       orientation="horizontal"
       position="54.340548"
       id="guide5172" />
    <sodipodi:guide
       orientation="vertical"
       position="58.949219"
       id="guide5176" />
    <sodipodi:guide
       orientation="horizontal"
       position="31.459882"
       id="guide5178" />
  </sodipodi:namedview>
  <defs
     id="defs4">
    <marker
       id="ArrowEnd"
       viewBox="0 0 10 10"
       refX="0"
       refY="5"
       markerUnits="strokeWidth"
       markerWidth="4"
       markerHeight="3"
       orient="auto">
      <path
         d="M 0 0 L 10 5 L 0 10 z"
         id="path7" />
    </marker>
    <marker
       id="ArrowStart"
       viewBox="0 0 10 10"
       refX="10"
       refY="5"
       markerUnits="strokeWidth"
       markerWidth="4"
       markerHeight="3"
       orient="auto">
      <path
         d="M 10 0 L 0 5 L 10 10 z"
         id="path10" />
    </marker>
  </defs>
  <path
     style="fill:#e28c05;stroke:none;stroke-width:0.299943;fill-opacity:1"
     d="M 130.244,47.8013 L 134.726,47.8013 C 134.3,46.7513 133.567,46.2285 132.529,46.2285 C 131.994,46.2285 131.521,46.3676 131.112,46.6501 C 130.708,46.9284 130.417,47.3122 130.244,47.8013 z M 137.805,50.791 C 137.497,51.5964 137.088,52.2669 136.569,52.7898 C 135.49,53.8862 134.17,54.4344 132.614,54.4344 C 130.944,54.4344 129.573,53.8187 128.502,52.5833 C 127.57,51.5121 127.106,50.2681 127.106,48.8513 C 127.106,47.2194 127.697,45.8616 128.873,44.7736 C 129.902,43.808 131.146,43.3273 132.605,43.3273 C 134.203,43.3273 135.544,43.905 136.632,45.0561 C 137.547,46.0471 138.003,47.0718 138.003,48.1345 C 138.003,48.7205 137.783,49.1844 137.349,49.5302 C 136.911,49.8759 136.32,50.0488 135.578,50.0488 L 130.341,50.0488 C 130.805,51.0525 131.543,51.5542 132.563,51.5542 C 133.191,51.5542 133.777,51.3013 134.322,50.791 L 137.805,50.791 z "
     id="path18" />
  <path
     style="fill:#e28c05;stroke:none;stroke-width:0.299943;fill-opacity:1"
     d="M 127.129,43.4411 L 127.129,48.9398 C 127.129,49.8423 127.079,50.5212 126.973,50.9681 C 126.872,51.4194 126.661,51.8959 126.341,52.3976 C 125.927,53.0302 125.405,53.5362 124.772,53.9157 C 124.013,54.3669 123.174,54.5946 122.25,54.5946 C 121.032,54.5946 119.961,54.2025 119.037,53.4223 C 118.438,52.912 118.012,52.3217 117.76,51.647 C 117.511,50.9765 117.384,50.0911 117.384,48.9862 L 117.384,43.4411 L 120.484,43.4411 L 120.484,48.9398 C 120.484,49.7284 120.538,50.2808 120.644,50.5929 C 120.758,50.9049 120.969,51.1663 121.276,51.373 C 121.58,51.5796 121.913,51.6808 122.276,51.6808 C 122.63,51.6808 122.959,51.5796 123.258,51.373 C 123.558,51.1663 123.764,50.8965 123.882,50.5676 C 123.979,50.2639 124.03,49.7073 124.03,48.9019 L 124.03,43.4411 L 127.129,43.4411 z "
     id="path20" />
  <path
     style="fill:#e28c05;stroke:none;stroke-width:0.299943;fill-opacity:1"
     d="M 103.041,43.4411 L 103.041,54.3121 L 99.9413,54.3121 L 99.9413,43.4411 L 103.041,43.4411 z "
     id="path22" />
  <path
     style="fill:#000000;stroke:none;stroke-width:0.299943;fill-opacity:1"
     d="M 93.2712,46.3127 C 92.5374,46.3127 91.9259,46.5953 91.4284,47.1646 C 91.0025,47.658 90.7874,48.2229 90.7874,48.8555 C 90.7874,49.6399 91.0574,50.2892 91.5928,50.8079 C 92.0694,51.2591 92.6302,51.4868 93.2712,51.4868 C 93.9711,51.4868 94.57,51.2337 95.0633,50.732 C 95.5567,50.2302 95.8055,49.6271 95.8055,48.9188 C 95.8055,48.185 95.5356,47.5525 94.9917,47.017 C 94.5278,46.5574 93.9544,46.3212 93.2712,46.3127 z M 98.8922,37.4657 L 98.8922,48.088 C 98.8922,49.02 98.829,49.7621 98.7067,50.3061 C 98.5844,50.8543 98.3525,51.3982 98.0151,51.9338 C 97.5134,52.7308 96.8429,53.3634 96.0037,53.823 C 95.1603,54.2826 94.2621,54.5145 93.3091,54.5145 C 91.5887,54.5145 90.1718,53.8651 89.0586,52.5621 C 88.1435,51.4994 87.688,50.2766 87.688,48.8934 C 87.688,47.2151 88.3121,45.8152 89.5646,44.6934 C 90.5977,43.7783 91.7573,43.323 93.0519,43.323 C 93.8742,43.323 94.7893,43.5676 95.7929,44.0609 L 95.7929,37.4657 L 98.8922,37.4657 z "
     id="path24" />
  <path
     style="fill:#000000;stroke:none;stroke-width:0.299943;fill-opacity:1"
     d="M 82.0656,46.3404 C 81.2645,46.3404 80.6193,46.6566 80.1259,47.2892 C 79.7465,47.77 79.5567,48.3096 79.5567,48.9085 C 79.5567,49.6674 79.8265,50.3043 80.3705,50.8229 C 80.8596,51.2909 81.4374,51.5271 82.1037,51.5271 C 82.8922,51.5271 83.5289,51.2109 84.0054,50.5741 C 84.3849,50.0724 84.5747,49.5367 84.5747,48.959 C 84.5747,48.1536 84.2626,47.4747 83.6343,46.9349 C 83.2,46.5555 82.6771,46.3572 82.0656,46.3404 z M 87.6994,54.3313 L 84.6,54.3313 L 84.6,53.4416 C 83.6217,54.1247 82.6561,54.4663 81.7072,54.4663 C 80.8596,54.4663 80.0332,54.2217 79.2234,53.7367 C 78.4181,53.2602 77.7729,52.6277 77.2838,51.835 C 76.7314,50.9199 76.4573,49.95 76.4573,48.9211 C 76.4573,47.3483 77.0265,46.0115 78.1609,44.9066 C 79.2488,43.8524 80.5518,43.3254 82.0656,43.3254 C 83.3265,43.3254 84.4566,43.7091 85.4644,44.4724 C 86.253,45.067 86.8223,45.7627 87.1722,46.5681 C 87.5222,47.3693 87.6994,48.3687 87.6994,49.5621 L 87.6994,54.3313 z "
     id="path26" />
  <path
     style="fill:#000000;stroke:none;stroke-width:0.299943;fill-opacity:1"
     d="M 68.7301,47.7995 L 73.2127,47.7995 C 72.7868,46.7495 72.0531,46.2266 71.0157,46.2266 C 70.4801,46.2266 70.0079,46.3658 69.5988,46.6482 C 69.194,46.9266 68.903,47.3104 68.7301,47.7995 z M 76.291,50.7892 C 75.9831,51.5946 75.5742,52.2651 75.0554,52.788 C 73.9759,53.8844 72.656,54.4326 71.1001,54.4326 C 69.4302,54.4326 68.0597,53.8169 66.9885,52.5813 C 66.0567,51.5103 65.5928,50.2663 65.5928,48.8495 C 65.5928,47.2176 66.1832,45.8596 67.3597,44.7718 C 68.3886,43.8062 69.6326,43.3254 71.0916,43.3254 C 72.6898,43.3254 74.0307,43.9031 75.1187,45.0543 C 76.0338,46.0453 76.4891,47.0699 76.4891,48.1326 C 76.4891,48.7187 76.2699,49.1826 75.8355,49.5284 C 75.397,49.8741 74.8066,50.0471 74.0645,50.0471 L 68.8272,50.0471 C 69.291,51.0507 70.029,51.5524 71.0494,51.5524 C 71.6778,51.5524 72.2639,51.2995 72.8079,50.7892 L 76.291,50.7892 z "
     id="path28" />
  <path
     style="fill:#e28c05;stroke:none;stroke-width:0.299943;fill-opacity:1"
     d="M 101.475,34.904 C 102.198,34.904 102.815,35.1557 103.318,35.6526 C 103.821,36.1496 104.073,36.7535 104.073,37.4644 C 104.073,38.1754 103.815,38.7919 103.299,39.3078 C 102.783,39.8237 102.173,40.0815 101.475,40.0815 C 100.764,40.0815 100.154,39.8237 99.6504,39.314 C 99.1471,38.8045 98.8953,38.188 98.8953,37.4644 C 98.8953,36.7535 99.1471,36.1496 99.644,35.6588 C 100.141,35.1681 100.751,34.9165 101.475,34.904 z "
     id="path34" />
  <path
     style="fill:#e28c05;stroke:none;stroke-width:0.299943;fill-opacity:1"
     d="M 116.833,43.7292 L 116.833,46.4948 C 116.151,46.0335 115.221,45.8616 114.441,45.8616 C 113.585,45.8616 113.155,46.0935 113.155,46.5531 C 113.155,46.7344 113.235,46.8863 113.396,47.0043 C 113.556,47.1223 113.864,47.2489 114.315,47.3795 C 114.918,47.5609 115.365,47.7212 115.656,47.8561 C 115.947,47.9911 116.212,48.1724 116.453,48.3917 C 117.161,49.0622 117.515,49.9308 117.515,51.0018 C 117.515,52.1447 117.077,53.0555 116.204,53.7302 C 115.474,54.2995 114.513,54.5819 113.328,54.5819 C 112.198,54.5819 110.463,54.3027 109.779,53.7272 C 110.405,53.1837 110.867,52.224 110.873,51.1842 C 111.224,51.372 111.342,51.4414 111.738,51.5754 C 112.138,51.7107 112.565,51.7778 113.02,51.7778 C 113.944,51.7778 114.403,51.5206 114.403,51.0103 C 114.403,50.7741 114.315,50.597 114.142,50.4874 C 113.969,50.3777 113.573,50.2428 112.944,50.0868 C 112.054,49.8549 111.405,49.5513 110.992,49.1718 C 110.326,48.5645 109.993,47.7592 109.993,46.7639 C 109.993,45.5706 110.461,44.6344 111.401,43.9598 C 112.177,43.3989 113.105,43.1206 114.193,43.1206 C 114.943,43.1206 115.99,43.3186 116.833,43.7292 z "
     id="path36" />
  <path
     style="fill:#e28c05;stroke:none;stroke-width:0.299943;fill-opacity:1"
     d="M 110.003,43.7294 L 110.003,46.5648 C 109.173,46.1221 108.27,45.8615 107.49,45.8615 C 106.634,45.8615 106.204,46.0934 106.204,46.553 C 106.204,46.7343 106.284,46.8862 106.444,47.0041 C 106.604,47.1223 106.912,47.2487 107.363,47.3795 C 107.967,47.5608 108.413,47.7211 108.704,47.856 C 108.995,47.9909 109.261,48.1723 109.501,48.3916 C 110.21,49.0621 110.564,49.9306 110.564,51.0017 C 110.564,52.1446 110.125,53.0554 109.253,53.7301 C 108.523,54.2994 107.562,54.5818 106.377,54.5818 C 105.247,54.5818 104.353,54.4108 103.358,53.9427 L 103.358,50.8816 C 104.024,51.2611 104.39,51.4411 104.787,51.5753 C 105.187,51.7108 105.613,51.7777 106.069,51.7777 C 106.992,51.7777 107.452,51.5205 107.452,51.0102 C 107.452,50.774 107.363,50.5969 107.191,50.4873 C 107.018,50.3777 106.621,50.2427 105.993,50.0867 C 105.103,49.8548 104.454,49.5512 104.041,49.1717 C 103.374,48.5644 103.041,47.7591 103.041,46.7638 C 103.041,45.5705 103.509,44.6343 104.45,43.9597 C 105.226,43.3988 106.153,43.1205 107.241,43.1205 C 107.992,43.1205 108.974,43.3373 110.003,43.7294 z "
     id="path38" />
  <path
     style="fill:#030303;stroke:#ffffff;stroke-width:0.21602701;stroke-opacity:0;fill-opacity:1"
     d="M 79.5606,57.3313 L 79.5606,58.1186 C 79.2156,57.9947 78.8788,57.9323 78.5544,57.9323 C 78.1989,57.9323 78.0203,57.9973 78.0203,58.1254 C 78.0203,58.1761 78.0535,58.2187 78.1201,58.2519 C 78.1865,58.2845 78.3149,58.3199 78.5023,58.3565 C 78.7529,58.4072 78.9386,58.452 79.0594,58.4894 C 79.1801,58.5271 79.291,58.5779 79.3908,58.6394 C 79.685,58.8265 79.8325,59.0692 79.8325,59.3686 C 79.8325,59.6878 79.6502,59.9424 79.2873,60.1312 C 78.9842,60.2902 78.5845,60.369 78.0921,60.369 C 77.6226,60.369 77.1806,60.303 76.767,60.1723 L 76.767,59.3133 C 77.044,59.4193 77.2665,59.491 77.4312,59.5287 C 77.5976,59.5664 77.7751,59.5854 77.9642,59.5854 C 78.3478,59.5854 78.5388,59.5134 78.5388,59.3711 C 78.5388,59.3048 78.5023,59.2554 78.4306,59.2248 C 78.3586,59.1942 78.1938,59.1568 77.9324,59.1129 C 77.5628,59.0482 77.2932,58.9634 77.1214,58.8574 C 76.8444,58.6876 76.706,58.4625 76.706,58.1844 C 76.706,57.8513 76.9002,57.5896 77.2912,57.4008 C 77.6138,57.2443 77.9991,57.1663 78.4512,57.1663 C 78.7631,57.1663 79.1331,57.2216 79.5606,57.3313 z M 82.7296,57.1663 C 83.4233,57.1663 84.0104,57.3444 84.4909,57.7013 C 84.9043,58.0052 85.1109,58.3706 85.1109,58.7984 C 85.1109,59.0542 85.0114,59.3036 84.8133,59.5477 C 84.608,59.8009 84.3259,60.0013 83.9667,60.1487 C 83.59,60.3052 83.1778,60.3832 82.7296,60.3832 C 82.2737,60.3832 81.853,60.3041 81.4657,60.1451 C 81.0926,59.9908 80.8051,59.7845 80.6036,59.5276 C 80.4196,59.292 80.3263,59.042 80.3263,58.7783 C 80.3263,58.3199 80.5792,57.9275 81.0853,57.6012 C 81.5306,57.316 82.0789,57.1711 82.7296,57.1663 z M 82.7239,58.0123 C 82.3927,58.0123 82.1107,58.1033 81.8827,58.2845 C 81.7109,58.4188 81.625,58.5827 81.625,58.7783 C 81.625,59.0034 81.739,59.1894 81.9689,59.3368 C 82.181,59.4723 82.4333,59.5406 82.7239,59.5406 C 83.0539,59.5406 83.3235,59.4582 83.5358,59.292 C 83.7263,59.1401 83.823,58.9716 83.823,58.7854 C 83.823,58.5439 83.6898,58.346 83.4219,58.1915 C 83.2203,58.0772 82.9872,58.0171 82.7239,58.0123 z M 87.3546,60.2936 L 86.0666,60.2936 L 86.0666,58.0747 L 85.3321,58.0747 L 85.3321,57.2664 L 86.0666,57.2664 L 86.0666,56.7552 C 86.0666,56.4006 86.2472,56.1165 86.6081,55.9034 C 86.9693,55.689 87.4492,55.5818 88.0489,55.5818 L 88.2587,55.5818 L 88.2587,56.3686 L 88.1243,56.3686 C 87.8578,56.3686 87.663,56.4063 87.5386,56.4831 C 87.4158,56.5582 87.3546,56.681 87.3546,56.8482 L 87.3546,57.2664 L 88.2587,57.2664 L 88.2587,58.0747 L 87.3546,58.0747 L 87.3546,60.2936 z M 89.2543,58.0877 L 88.4798,58.0877 L 88.4798,57.2559 L 89.2543,57.2559 L 89.2543,56.2206 L 90.5425,56.2206 L 90.5425,57.2559 L 91.4832,57.2559 L 91.4832,58.0877 L 90.5425,58.0877 L 90.5425,58.6981 C 90.5425,58.9082 90.5493,59.0445 90.5635,59.1094 C 90.5774,59.1744 90.6091,59.2342 90.6596,59.2886 C 90.7914,59.425 91.0647,59.4899 91.4818,59.4854 L 91.4818,60.3007 C 91.403,60.3007 91.317,60.3007 91.226,60.3007 C 90.3495,60.3007 89.745,60.0592 89.4136,59.5761 C 89.3453,59.4769 89.3017,59.3745 89.2855,59.2696 C 89.2682,59.1659 89.2574,58.9467 89.2543,58.6156 L 89.2543,58.0877 z M 97.7732,57.2559 L 97.0126,59.628 C 96.9584,59.8046 96.9196,59.9143 96.9003,59.9554 C 96.8793,59.9968 96.8393,60.0461 96.7815,60.104 C 96.6134,60.265 96.373,60.3455 96.0574,60.3455 C 95.8015,60.3455 95.5985,60.2948 95.4491,60.1935 C 95.3002,60.092 95.1933,59.9319 95.1284,59.7139 L 94.7993,58.6156 L 94.4871,59.7068 C 94.4313,59.8905 94.3576,60.0237 94.2663,60.1074 C 94.0911,60.2641 93.8479,60.3418 93.5371,60.3418 C 93.2148,60.3418 92.973,60.2593 92.8136,60.0932 C 92.7204,59.9968 92.6401,59.8434 92.5715,59.6339 L 91.8007,57.2559 L 93.1096,57.2559 L 93.6142,59.0057 L 93.9474,57.8663 C 94.0089,57.6624 94.0911,57.5105 94.1946,57.4116 C 94.3346,57.2715 94.5396,57.2006 94.8098,57.2006 C 95.1077,57.2006 95.3252,57.2783 95.4615,57.4351 C 95.5109,57.4878 95.5423,57.534 95.5599,57.5717 C 95.5775,57.6094 95.6104,57.7143 95.6634,57.8839 L 96.0121,59.0471 L 96.515,57.2559 L 97.7732,57.2559 z M 102.749,60.2936 L 101.461,60.2936 L 101.461,60.045 C 101.054,60.2358 100.653,60.3313 100.259,60.3313 C 99.9062,60.3313 99.5626,60.263 99.2264,60.1275 C 98.8913,59.9942 98.6231,59.8176 98.4201,59.5962 C 98.1905,59.3405 98.0765,59.0692 98.0765,58.7817 C 98.0765,58.3423 98.313,57.9689 98.7844,57.6599 C 99.2363,57.3656 99.7781,57.2182 100.407,57.2182 C 100.932,57.2182 101.401,57.3254 101.82,57.5388 C 102.148,57.7047 102.384,57.8995 102.53,58.1246 C 102.675,58.348 102.749,58.6275 102.749,58.9609 L 102.749,60.2936 z M 100.407,58.0608 C 100.074,58.0608 99.8062,58.1492 99.6012,58.3258 C 99.4436,58.4602 99.3645,58.6111 99.3645,58.7783 C 99.3645,58.9904 99.4767,59.1684 99.7027,59.3133 C 99.9062,59.444 100.146,59.51 100.423,59.51 C 100.751,59.51 101.016,59.4216 101.214,59.2438 C 101.371,59.1035 101.45,58.9538 101.45,58.7925 C 101.45,58.5674 101.32,58.3777 101.059,58.2266 C 100.879,58.1209 100.661,58.0656 100.407,58.0608 z M 104.92,60.2936 L 103.632,60.2936 L 103.632,58.7406 C 103.632,58.5144 103.642,58.3519 103.663,58.2519 C 103.683,58.1515 103.728,58.0526 103.797,57.9533 C 104.117,57.4904 104.72,57.2593 105.604,57.2593 C 105.648,57.2593 105.716,57.2607 105.809,57.263 L 105.809,58.0596 L 105.654,58.063 C 105.371,58.0676 105.178,58.1056 105.074,58.1739 C 104.971,58.2433 104.92,58.3681 104.92,58.5498 L 104.92,60.2936 z M 110.574,59.3096 C 110.446,59.5347 110.276,59.7221 110.06,59.8684 C 109.612,60.1746 109.063,60.3279 108.416,60.3279 C 107.722,60.3279 107.153,60.1559 106.707,59.8105 C 106.32,59.5112 106.127,59.1636 106.127,58.7678 C 106.127,58.3117 106.373,57.9323 106.862,57.6281 C 107.29,57.3586 107.807,57.2242 108.413,57.2242 C 109.077,57.2242 109.634,57.3858 110.086,57.7072 C 110.467,57.9842 110.656,58.2706 110.656,58.5674 C 110.656,58.731 110.565,58.8608 110.384,58.9575 C 110.202,59.0542 109.957,59.1024 109.648,59.1024 L 107.471,59.1024 C 107.665,59.3828 107.971,59.5231 108.395,59.5231 C 108.656,59.5231 108.9,59.4522 109.126,59.3096 L 110.574,59.3096 z M 107.431,58.4744 L 109.294,58.4744 C 109.117,58.181 108.812,58.035 108.381,58.035 C 108.159,58.035 107.962,58.0738 107.793,58.1526 C 107.624,58.2303 107.503,58.3375 107.431,58.4744 z M 119.626,57.2559 L 118.865,59.628 C 118.811,59.8046 118.773,59.9143 118.753,59.9554 C 118.732,59.9968 118.692,60.0461 118.634,60.104 C 118.466,60.265 118.226,60.3455 117.91,60.3455 C 117.654,60.3455 117.451,60.2948 117.302,60.1935 C 117.153,60.092 117.046,59.9319 116.981,59.7139 L 116.652,58.6156 L 116.34,59.7068 C 116.284,59.8905 116.211,60.0237 116.119,60.1074 C 115.944,60.2641 115.701,60.3418 115.39,60.3418 C 115.068,60.3418 114.826,60.2593 114.666,60.0932 C 114.573,59.9968 114.493,59.8434 114.424,59.6339 L 113.653,57.2559 L 114.962,57.2559 L 115.467,59.0057 L 115.8,57.8663 C 115.862,57.6624 115.944,57.5105 116.047,57.4116 C 116.188,57.2715 116.392,57.2006 116.663,57.2006 C 116.961,57.2006 117.178,57.2783 117.315,57.4351 C 117.364,57.4878 117.395,57.534 117.413,57.5717 C 117.43,57.6094 117.463,57.7143 117.516,57.8839 L 117.865,59.0471 L 118.368,57.2559 L 119.626,57.2559 z M 122.337,57.1663 C 123.031,57.1663 123.618,57.3444 124.099,57.7013 C 124.512,58.0052 124.719,58.3706 124.719,58.7984 C 124.719,59.0542 124.619,59.3036 124.421,59.5477 C 124.216,59.8009 123.934,60.0013 123.575,60.1487 C 123.198,60.3052 122.786,60.3832 122.337,60.3832 C 121.882,60.3832 121.461,60.3041 121.074,60.1451 C 120.701,59.9908 120.413,59.7845 120.211,59.5276 C 120.028,59.292 119.934,59.042 119.934,58.7783 C 119.934,58.3199 120.187,57.9275 120.693,57.6012 C 121.138,57.316 121.687,57.1711 122.337,57.1663 z M 122.332,58.0123 C 122.001,58.0123 121.719,58.1033 121.491,58.2845 C 121.319,58.4188 121.233,58.5827 121.233,58.7783 C 121.233,59.0034 121.347,59.1894 121.577,59.3368 C 121.789,59.4723 122.041,59.5406 122.332,59.5406 C 122.662,59.5406 122.932,59.4582 123.144,59.292 C 123.334,59.1401 123.431,58.9716 123.431,58.7854 C 123.431,58.5439 123.298,58.346 123.03,58.1915 C 122.828,58.0772 122.595,58.0171 122.332,58.0123 z M 126.701,60.2936 L 125.413,60.2936 L 125.413,58.7406 C 125.413,58.5144 125.424,58.3519 125.445,58.2519 C 125.464,58.1515 125.51,58.0526 125.578,57.9533 C 125.899,57.4904 126.501,57.2593 127.385,57.2593 C 127.429,57.2593 127.497,57.2607 127.59,57.263 L 127.59,58.0596 L 127.436,58.063 C 127.152,58.0676 126.959,58.1056 126.855,58.1739 C 126.752,58.2433 126.701,58.3681 126.701,58.5498 L 126.701,60.2936 z M 129.546,55.5818 L 129.546,60.2936 L 128.258,60.2936 L 128.258,55.5818 L 129.546,55.5818 z M 132.278,57.2559 L 130.829,58.7369 L 132.504,60.2936 L 130.911,60.2936 L 130.007,59.3686 C 129.802,59.1613 129.681,59.0315 129.645,58.9785 C 129.609,58.9257 129.591,58.8574 129.591,58.7746 C 129.591,58.6111 129.728,58.3823 130.003,58.0877 L 130.778,57.2559 L 132.278,57.2559 z M 135.606,57.3313 L 135.606,58.1186 C 135.261,57.9947 134.924,57.9323 134.6,57.9323 C 134.244,57.9323 134.066,57.9973 134.066,58.1254 C 134.066,58.1761 134.099,58.2187 134.166,58.2519 C 134.232,58.2845 134.36,58.3199 134.548,58.3565 C 134.799,58.4072 134.984,58.452 135.105,58.4894 C 135.226,58.5271 135.336,58.5779 135.436,58.6394 C 135.731,58.8265 135.878,59.0692 135.878,59.3686 C 135.878,59.6878 135.696,59.9424 135.333,60.1312 C 135.03,60.2902 134.63,60.369 134.137,60.369 C 133.668,60.369 133.226,60.303 132.813,60.1723 L 132.813,59.3133 C 133.09,59.4193 133.312,59.491 133.477,59.5287 C 133.643,59.5664 133.82,59.5854 134.01,59.5854 C 134.393,59.5854 134.585,59.5134 134.585,59.3711 C 134.585,59.3048 134.548,59.2554 134.476,59.2248 C 134.404,59.1942 134.24,59.1568 133.978,59.1129 C 133.608,59.0482 133.339,58.9634 133.167,58.8574 C 132.89,58.6876 132.751,58.4625 132.751,58.1844 C 132.751,57.8513 132.946,57.5896 133.337,57.4008 C 133.659,57.2443 134.045,57.1663 134.497,57.1663 C 134.809,57.1663 135.178,57.2216 135.606,57.3313 z M 137.471,59.252 C 137.702,59.252 137.898,59.3062 138.058,59.4145 C 138.218,59.5216 138.296,59.6549 138.296,59.8105 C 138.296,59.9625 138.216,60.0932 138.053,60.2006 C 137.89,60.3089 137.695,60.3631 137.471,60.3631 C 137.242,60.3631 137.045,60.3089 136.885,60.2006 C 136.724,60.0932 136.644,59.9611 136.644,59.8069 C 136.644,59.656 136.724,59.5253 136.885,59.4179 C 137.045,59.3096 137.242,59.2543 137.471,59.252 z "
     id="path40" />
  <rect
     style="fill:#e28c05;fill-opacity:1;stroke:none"
     id="rect5168"
     width="27.564077"
     height="29.100664"
     x="31.385141"
     y="31.246353"
     ry="5.4273672"
     rx="5.8090014" />
  <path
     style="fill:#ffffff;stroke:none;stroke-width:0.500094;stroke-linejoin:round"
     d="M 36.2541,48.5386 C 35.5795,47.6849 34.5124,47.3436 34.5182,48.4432 C 34.527,50.0944 34.5618,52.4662 34.5745,53.6241 C 34.5839,54.4777 34.8109,54.4856 35.1147,54.743 L 41.7398,60.354 L 45.757,60.3539 L 57.5835,37.4657 L 53.314,37.4658 L 41.891,54.3119 L 36.2541,48.5386 z "
     id="path30" />
  <path
     style="fill:#000000;stroke:none;stroke-width:0.299943;fill-opacity:1"
     d="M 65.5874,54.3289 L 62.488,54.3289 L 62.488,48.3115 C 62.488,47.7464 62.4121,47.3037 62.2646,46.9917 C 62.1338,46.7134 61.9272,46.4857 61.6405,46.3085 C 61.3579,46.1314 61.0543,46.0428 60.7296,46.0428 C 60.3922,46.0428 60.076,46.1357 59.7808,46.3212 C 59.4814,46.5067 59.2705,46.7429 59.1483,47.0296 C 59.0176,47.3247 58.95,47.738 58.95,48.2652 L 58.95,54.3289 L 55.8506,54.3289 L 55.8506,37.4657 L 58.95,37.4657 L 58.95,43.8037 C 59.726,43.3778 60.4808,43.1627 61.2229,43.1627 C 62.2392,43.1627 63.1459,43.4747 63.9429,44.1031 C 64.5542,44.5712 64.9802,45.1194 65.2247,45.7435 C 65.4651,46.3676 65.5874,47.2278 65.5874,48.3115 L 65.5874,54.3289 z "
     id="path32" />
</svg>
